<svg xmlns="http://www.w3.org/2000/svg" xmlns:xlink="http://www.w3.org/1999/xlink" width="500" zoomAndPan="magnify" viewBox="0 0 375 127.500001" height="170" preserveAspectRatio="xMidYMid meet" version="1.0"><defs><g/><clipPath id="228bf4f6ff"><path d="M 41 0 L 208 0 L 208 127.003906 L 41 127.003906 Z M 41 0 " clip-rule="nonzero"/></clipPath><clipPath id="259b1a7b0d"><path d="M 89 0 L 255 0 L 255 127.003906 L 89 127.003906 Z M 89 0 " clip-rule="nonzero"/></clipPath></defs><g fill="#00a455" fill-opacity="1"><g transform="translate(6.38053, 116.842747)"><g><path d="M 26.234375 -71.125 L 1.578125 -71.125 L 1.578125 -110.640625 L 91.828125 -110.640625 L 91.828125 -71.125 L 67.171875 -71.125 L 67.171875 0 L 26.234375 0 Z M 26.234375 -71.125 "/></g></g></g><g clip-path="url(#228bf4f6ff)"><path stroke-linecap="butt" transform="matrix(0.969635, 0, 0, 0.969635, 71.092667, -32.767133)" fill="none" stroke-linejoin="miter" d="M 55.434366 125.910767 C 50.6041 125.910767 46.055834 125.004337 41.789569 123.187448 C 37.519275 121.354444 33.764639 118.812411 30.517604 115.569404 C 27.274598 112.326398 24.74465 108.567734 22.927761 104.301469 C 21.1149 100.031175 20.204442 95.482909 20.204442 90.656671 C 20.204442 85.749862 21.1149 81.181453 22.927761 76.951445 C 24.74465 72.725465 27.274598 68.986944 30.517604 65.739909 C 33.764639 62.496903 37.519275 59.966955 41.789569 58.150066 C 46.055834 56.337205 50.6041 55.426746 55.434366 55.426746 C 60.337147 55.426746 64.905556 56.337205 69.135564 58.150066 C 73.385715 59.966955 77.120208 62.496903 80.347099 65.739909 C 83.590106 68.986944 86.120053 72.725465 87.936943 76.951445 C 89.773975 81.181453 90.688462 85.749862 90.688462 90.656671 C 90.688462 95.482909 89.773975 100.031175 87.936943 104.301469 C 86.120053 108.567734 83.590106 112.326398 80.347099 115.569404 C 77.120208 118.812411 73.385715 121.354444 69.135564 123.187448 C 64.905556 125.004337 60.337147 125.910767 55.434366 125.910767 Z M 55.434366 84.601717 C 53.770563 84.601717 52.344446 85.197946 51.143929 86.398463 C 49.967584 87.574808 49.379412 88.996896 49.379412 90.656671 C 49.379412 92.316446 49.967584 93.746591 51.143929 94.943079 C 52.344446 96.123453 53.770563 96.711625 55.434366 96.711625 C 57.094141 96.711625 58.512201 96.123453 59.692574 94.943079 C 60.889062 93.746591 61.489321 92.316446 61.489321 90.656671 C 61.489321 88.996896 60.889062 87.574808 59.692574 86.398463 C 58.512201 85.197946 57.094141 84.601717 55.434366 84.601717 Z M 55.434366 84.601717 " stroke="#fff9f9" stroke-width="8.900025" stroke-opacity="1" stroke-miterlimit="4"/></g><g fill="#00a455" fill-opacity="1"><g transform="translate(89.758134, 87.467567)"><g><path d="M 35.09375 1.84375 C 30.414062 1.84375 26.003906 0.960938 21.859375 -0.796875 C 17.722656 -2.566406 14.082031 -5.023438 10.9375 -8.171875 C 7.789062 -11.316406 5.332031 -14.957031 3.5625 -19.09375 C 1.800781 -23.238281 0.921875 -27.648438 0.921875 -32.328125 C 0.921875 -37.085938 1.800781 -41.519531 3.5625 -45.625 C 5.332031 -49.726562 7.789062 -53.351562 10.9375 -56.5 C 14.082031 -59.644531 17.722656 -62.097656 21.859375 -63.859375 C 26.003906 -65.617188 30.414062 -66.5 35.09375 -66.5 C 39.851562 -66.5 44.285156 -65.617188 48.390625 -63.859375 C 52.492188 -62.097656 56.113281 -59.644531 59.25 -56.5 C 62.394531 -53.351562 64.847656 -49.726562 66.609375 -45.625 C 68.378906 -41.519531 69.265625 -37.085938 69.265625 -32.328125 C 69.265625 -27.648438 68.378906 -23.238281 66.609375 -19.09375 C 64.847656 -14.957031 62.394531 -11.316406 59.25 -8.171875 C 56.113281 -5.023438 52.492188 -2.566406 48.390625 -0.796875 C 44.285156 0.960938 39.851562 1.84375 35.09375 1.84375 Z M 35.09375 -38.203125 C 33.476562 -38.203125 32.09375 -37.625 30.9375 -36.46875 C 29.789062 -35.320312 29.21875 -33.941406 29.21875 -32.328125 C 29.21875 -30.722656 29.789062 -29.34375 30.9375 -28.1875 C 32.09375 -27.039062 33.476562 -26.46875 35.09375 -26.46875 C 36.707031 -26.46875 38.085938 -27.039062 39.234375 -28.1875 C 40.390625 -29.34375 40.96875 -30.722656 40.96875 -32.328125 C 40.96875 -33.941406 40.390625 -35.320312 39.234375 -36.46875 C 38.085938 -37.625 36.707031 -38.203125 35.09375 -38.203125 Z M 35.09375 -38.203125 "/></g></g></g><g clip-path="url(#259b1a7b0d)"><path stroke-linecap="butt" transform="matrix(0.969635, 0, 0, 0.969635, 121.850805, -0.473937)" fill="none" stroke-linejoin="miter" d="M 86.840833 40.94377 L 86.840833 90.773266 C 86.840833 95.599503 85.922317 100.147769 84.085285 104.418063 C 82.272425 108.684328 79.742477 112.442993 76.495442 115.685999 C 73.252436 118.929005 69.513915 121.471039 65.283906 123.304042 C 61.057927 125.120931 56.489518 126.027362 51.582709 126.027362 C 46.756471 126.027362 42.208205 125.120931 37.937911 123.304042 C 33.671646 121.471039 29.933125 118.929005 26.726376 115.685999 C 23.519627 112.442993 21.009822 108.684328 19.192933 104.418063 C 17.380072 100.147769 16.469613 95.599503 16.469613 90.773266 C 16.469613 85.866456 17.380072 81.298047 19.192933 77.068039 C 21.009822 72.838031 23.519627 69.103538 26.726376 65.856504 C 29.933125 62.613497 33.671646 60.08355 37.937911 58.266661 C 42.208205 56.4538 46.756471 55.543341 51.582709 55.543341 L 55.985946 55.543341 L 55.985946 84.718311 L 51.582709 84.718311 C 49.922934 84.718311 48.512932 85.314541 47.352701 86.515057 C 46.212613 87.691403 45.644583 89.109462 45.644583 90.773266 C 45.644583 92.43304 46.212613 93.863186 47.352701 95.059674 C 48.512932 96.236019 49.922934 96.82822 51.582709 96.82822 C 53.323055 96.82822 54.761258 96.236019 55.901346 95.059674 C 57.057548 93.863186 57.637663 92.43304 57.637663 90.773266 L 57.637663 40.94377 Z M 86.840833 40.94377 " stroke="#fff9f9" stroke-width="8.900025" stroke-opacity="1" stroke-miterlimit="4"/></g><g fill="#00a455" fill-opacity="1"><g transform="translate(136.895293, 119.760762)"><g><path d="M 69.15625 -80.546875 L 69.15625 -32.21875 C 69.15625 -27.539062 68.269531 -23.128906 66.5 -18.984375 C 64.738281 -14.835938 62.285156 -11.191406 59.140625 -8.046875 C 55.992188 -4.910156 52.367188 -2.457031 48.265625 -0.6875 C 44.160156 1.070312 39.734375 1.953125 34.984375 1.953125 C 30.296875 1.953125 25.878906 1.070312 21.734375 -0.6875 C 17.597656 -2.457031 13.976562 -4.910156 10.875 -8.046875 C 7.769531 -11.191406 5.332031 -14.835938 3.5625 -18.984375 C 1.800781 -23.128906 0.921875 -27.539062 0.921875 -32.21875 C 0.921875 -36.96875 1.800781 -41.394531 3.5625 -45.5 C 5.332031 -49.601562 7.769531 -53.226562 10.875 -56.375 C 13.976562 -59.519531 17.597656 -61.972656 21.734375 -63.734375 C 25.878906 -65.503906 30.296875 -66.390625 34.984375 -66.390625 L 39.234375 -66.390625 L 39.234375 -38.078125 L 34.984375 -38.078125 C 33.367188 -38.078125 32.003906 -37.503906 30.890625 -36.359375 C 29.773438 -35.210938 29.21875 -33.832031 29.21875 -32.21875 C 29.21875 -30.601562 29.773438 -29.21875 30.890625 -28.0625 C 32.003906 -26.914062 33.367188 -26.34375 34.984375 -26.34375 C 36.671875 -26.34375 38.066406 -26.914062 39.171875 -28.0625 C 40.285156 -29.21875 40.84375 -30.601562 40.84375 -32.21875 L 40.84375 -80.546875 Z M 69.15625 -80.546875 "/></g></g></g><g fill="#00a455" fill-opacity="1"><g transform="translate(207.639874, 124.36497)"><g><path d="M 34.40625 -66.5 C 39.007812 -66.5 43.304688 -65.632812 47.296875 -63.90625 C 51.285156 -62.1875 54.8125 -59.8125 57.875 -56.78125 C 60.945312 -53.75 63.34375 -50.21875 65.0625 -46.1875 C 66.789062 -42.164062 67.65625 -37.851562 67.65625 -33.25 L 67.65625 0 L 40.046875 0 L 40.046875 -33.25 C 40.046875 -34.78125 39.488281 -36.117188 38.375 -37.265625 C 37.257812 -38.421875 35.9375 -39 34.40625 -39 C 32.789062 -39 31.425781 -38.421875 30.3125 -37.265625 C 29.207031 -36.117188 28.65625 -34.78125 28.65625 -33.25 C 28.65625 -31.71875 29.207031 -30.375 30.3125 -29.21875 C 31.425781 -28.070312 32.789062 -27.5 34.40625 -27.5 L 38.4375 -27.5 L 38.4375 0 L 34.40625 0 C 29.800781 0 25.484375 -0.859375 21.453125 -2.578125 C 17.429688 -4.304688 13.90625 -6.703125 10.875 -9.765625 C 7.84375 -12.835938 5.460938 -16.367188 3.734375 -20.359375 C 2.015625 -24.347656 1.15625 -28.644531 1.15625 -33.25 C 1.15625 -37.851562 2.015625 -42.164062 3.734375 -46.1875 C 5.460938 -50.21875 7.84375 -53.75 10.875 -56.78125 C 13.90625 -59.8125 17.429688 -62.1875 21.453125 -63.90625 C 25.484375 -65.632812 29.800781 -66.5 34.40625 -66.5 Z M 34.40625 -66.5 "/></g></g></g><g fill="#2a644f" fill-opacity="1"><g transform="translate(273.091762, 40.790903)"><g><path d="M 3.125 -3.09375 L 1 -0.984375 L -10.109375 -12.1875 L -2.625 -19.609375 L -0.75 -17.71875 L -6.109375 -12.40625 L -3.375 -9.65625 L 1.421875 -14.421875 L 3.296875 -12.53125 L -1.5 -7.765625 Z M 3.125 -3.09375 "/></g></g></g><g fill="#2a644f" fill-opacity="1"><g transform="translate(283.989775, 30.129362)"><g><path d="M 7.90625 -3.078125 C 6.707031 -2.566406 5.578125 -2.320312 4.515625 -2.34375 C 3.453125 -2.375 2.476562 -2.613281 1.59375 -3.0625 C 0.71875 -3.507812 -0.0507812 -4.125 -0.71875 -4.90625 C -1.394531 -5.6875 -1.945312 -6.582031 -2.375 -7.59375 C -2.800781 -8.582031 -3.066406 -9.59375 -3.171875 -10.625 C -3.285156 -11.65625 -3.203125 -12.640625 -2.921875 -13.578125 C -2.648438 -14.523438 -2.15625 -15.390625 -1.4375 -16.171875 C -0.726562 -16.953125 0.222656 -17.597656 1.421875 -18.109375 C 2.617188 -18.628906 3.742188 -18.878906 4.796875 -18.859375 C 5.859375 -18.835938 6.828125 -18.601562 7.703125 -18.15625 C 8.585938 -17.71875 9.367188 -17.101562 10.046875 -16.3125 C 10.722656 -15.53125 11.273438 -14.644531 11.703125 -13.65625 C 12.128906 -12.644531 12.394531 -11.625 12.5 -10.59375 C 12.601562 -9.570312 12.515625 -8.585938 12.234375 -7.640625 C 11.960938 -6.691406 11.472656 -5.820312 10.765625 -5.03125 C 10.054688 -4.25 9.101562 -3.597656 7.90625 -3.078125 Z M 6.84375 -5.53125 C 7.738281 -5.925781 8.40625 -6.46875 8.84375 -7.15625 C 9.28125 -7.84375 9.492188 -8.640625 9.484375 -9.546875 C 9.484375 -10.453125 9.269531 -11.410156 8.84375 -12.421875 C 8.414062 -13.410156 7.875 -14.210938 7.21875 -14.828125 C 6.5625 -15.441406 5.832031 -15.828125 5.03125 -15.984375 C 4.226562 -16.148438 3.378906 -16.035156 2.484375 -15.640625 C 1.597656 -15.265625 0.929688 -14.726562 0.484375 -14.03125 C 0.046875 -13.332031 -0.171875 -12.535156 -0.171875 -11.640625 C -0.171875 -10.742188 0.0390625 -9.800781 0.46875 -8.8125 C 0.894531 -7.800781 1.4375 -6.984375 2.09375 -6.359375 C 2.757812 -5.734375 3.492188 -5.34375 4.296875 -5.1875 C 5.109375 -5.039062 5.957031 -5.15625 6.84375 -5.53125 Z M 6.84375 -5.53125 "/></g></g></g><g fill="#2a644f" fill-opacity="1"><g transform="translate(302.211192, 23.122613)"><g><path d="M 10.625 -7.015625 L 13.578125 -0.203125 L 10.40625 -0.15625 L 7.8125 -6.4375 L 4.296875 -6.375 L 4.390625 -0.0625 L 1.40625 -0.015625 L 1.15625 -15.796875 L 7.96875 -15.90625 C 8.957031 -15.925781 9.828125 -15.78125 10.578125 -15.46875 C 11.335938 -15.15625 11.929688 -14.660156 12.359375 -13.984375 C 12.796875 -13.304688 13.023438 -12.421875 13.046875 -11.328125 C 13.066406 -10.296875 12.859375 -9.410156 12.421875 -8.671875 C 11.992188 -7.941406 11.394531 -7.390625 10.625 -7.015625 Z M 7.59375 -13.234375 L 4.1875 -13.171875 L 4.25 -8.984375 L 7.65625 -9.046875 C 8.457031 -9.054688 9.066406 -9.238281 9.484375 -9.59375 C 9.898438 -9.957031 10.101562 -10.488281 10.09375 -11.1875 C 10.082031 -11.863281 9.859375 -12.375 9.421875 -12.71875 C 8.992188 -13.070312 8.382812 -13.242188 7.59375 -13.234375 Z M 7.59375 -13.234375 "/></g></g></g><g fill="#2a644f" fill-opacity="1"><g transform="translate(319.537007, 23.904783)"><g/></g></g><g fill="#2a644f" fill-opacity="1"><g transform="translate(328.043435, 26.040123)"><g><path d="M 7.515625 4.609375 L 4.84375 2.96875 L 8.078125 -2.3125 L 8.203125 -13.484375 L 11.15625 -11.671875 L 10.921875 -3.953125 L 17.703125 -7.65625 L 20.65625 -5.84375 L 10.75 -0.671875 Z M 7.515625 4.609375 "/></g></g></g><g fill="#2a644f" fill-opacity="1"><g transform="translate(342.486811, 35.223811)"><g><path d="M 4.734375 7.03125 C 3.972656 5.976562 3.484375 4.929688 3.265625 3.890625 C 3.054688 2.847656 3.078125 1.847656 3.328125 0.890625 C 3.578125 -0.0546875 4.007812 -0.941406 4.625 -1.765625 C 5.25 -2.597656 6.003906 -3.335938 6.890625 -3.984375 C 7.765625 -4.617188 8.691406 -5.101562 9.671875 -5.4375 C 10.648438 -5.769531 11.628906 -5.898438 12.609375 -5.828125 C 13.585938 -5.765625 14.535156 -5.46875 15.453125 -4.9375 C 16.378906 -4.414062 17.222656 -3.628906 17.984375 -2.578125 C 18.742188 -1.523438 19.234375 -0.476562 19.453125 0.5625 C 19.671875 1.601562 19.65625 2.597656 19.40625 3.546875 C 19.164062 4.492188 18.734375 5.382812 18.109375 6.21875 C 17.492188 7.050781 16.75 7.785156 15.875 8.421875 C 14.988281 9.066406 14.054688 9.550781 13.078125 9.875 C 12.097656 10.207031 11.113281 10.34375 10.125 10.28125 C 9.144531 10.21875 8.191406 9.921875 7.265625 9.390625 C 6.335938 8.867188 5.492188 8.082031 4.734375 7.03125 Z M 6.890625 5.46875 C 7.460938 6.257812 8.132812 6.789062 8.90625 7.0625 C 9.675781 7.332031 10.503906 7.367188 11.390625 7.171875 C 12.285156 6.972656 13.175781 6.550781 14.0625 5.90625 C 14.9375 5.269531 15.597656 4.5625 16.046875 3.78125 C 16.503906 3.007812 16.722656 2.21875 16.703125 1.40625 C 16.679688 0.59375 16.382812 -0.207031 15.8125 -1 C 15.25 -1.78125 14.578125 -2.3125 13.796875 -2.59375 C 13.023438 -2.875 12.203125 -2.914062 11.328125 -2.71875 C 10.453125 -2.53125 9.578125 -2.117188 8.703125 -1.484375 C 7.816406 -0.835938 7.140625 -0.125 6.671875 0.65625 C 6.203125 1.4375 5.976562 2.238281 6 3.0625 C 6.03125 3.882812 6.328125 4.6875 6.890625 5.46875 Z M 6.890625 5.46875 "/></g></g></g><g fill="#2a644f" fill-opacity="1"><g transform="translate(353.368713, 51.396248)"><g><path d="M 1.40625 7.484375 C 1.070312 6.015625 1.046875 4.765625 1.328125 3.734375 C 1.617188 2.710938 2.160156 1.882812 2.953125 1.25 C 3.742188 0.625 4.71875 0.179688 5.875 -0.078125 L 15.65625 -2.34375 L 16.328125 0.578125 L 6.546875 2.84375 C 5.910156 2.976562 5.367188 3.203125 4.921875 3.515625 C 4.472656 3.835938 4.160156 4.273438 3.984375 4.828125 C 3.816406 5.378906 3.828125 6.066406 4.015625 6.890625 C 4.210938 7.710938 4.503906 8.328125 4.890625 8.734375 C 5.285156 9.148438 5.753906 9.398438 6.296875 9.484375 C 6.835938 9.578125 7.425781 9.554688 8.0625 9.421875 L 17.84375 7.15625 L 18.515625 10.078125 L 8.734375 12.34375 C 7.578125 12.601562 6.503906 12.625 5.515625 12.40625 C 4.523438 12.1875 3.675781 11.675781 2.96875 10.875 C 2.269531 10.082031 1.75 8.953125 1.40625 7.484375 Z M 1.40625 7.484375 "/></g></g></g><g fill="#00a455" fill-opacity="1"><g transform="translate(277.238378, 124.36497)"><g><path d="M 1.15625 0 L 1.15625 -80.65625 L 29.453125 -80.65625 L 29.453125 -39.921875 L 42.578125 -64.546875 L 72.375 -64.546875 L 54.3125 -32.328125 L 74.5625 0 L 44.765625 0 L 29.453125 -25.546875 L 29.453125 0 Z M 1.15625 0 "/></g></g></g></svg>